<?xml version="1.0" encoding="UTF-8" standalone="no"?>
<!DOCTYPE svg PUBLIC "-//W3C//DTD SVG 1.1//EN" "http://www.w3.org/Graphics/SVG/1.1/DTD/svg11.dtd">
<svg width="100%" height="100%" viewBox="0 0 500 500" version="1.1" xmlns="http://www.w3.org/2000/svg" xmlns:xlink="http://www.w3.org/1999/xlink" xml:space="preserve" xmlns:serif="http://www.serif.com/" style="fill-rule:evenodd;clip-rule:evenodd;stroke-linejoin:round;stroke-miterlimit:2;">
    <g id="First_Medal">
        <path d="M250,119.118L201.684,13.402C200.668,11.177 198.446,9.75 196,9.75L70,9.75C67.873,9.75 65.892,10.832 64.742,12.622C63.592,14.411 63.431,16.663 64.316,18.598L181.316,274.598C182.332,276.823 184.554,278.25 187,278.25L216.25,278.25L216.25,295.582C177.502,309.453 149.75,346.511 149.75,390C149.75,445.329 194.671,490.25 250,490.25C305.329,490.25 350.25,445.329 350.25,390C350.25,346.511 322.498,309.453 283.75,295.582L283.75,278.25L312.896,278.25C315.303,278.288 317.621,276.926 318.684,274.598L435.684,18.598C436.569,16.663 436.408,14.411 435.258,12.622C434.108,10.832 432.127,9.75 430,9.75L304,9.75C301.554,9.75 299.332,11.177 298.316,13.402L250,119.118ZM250,302.25C298.431,302.25 337.75,341.569 337.75,390C337.75,438.431 298.431,477.75 250,477.75C201.569,477.75 162.25,438.431 162.25,390C162.25,341.569 201.569,302.25 250,302.25ZM250,313.75C207.916,313.75 173.75,347.916 173.75,390C173.75,432.084 207.916,466.25 250,466.25C292.084,466.25 326.25,432.084 326.25,390C326.25,347.916 292.084,313.75 250,313.75ZM250,326.25C285.185,326.25 313.75,354.815 313.75,390C313.75,425.185 285.185,453.75 250,453.75C214.815,453.75 186.25,425.185 186.25,390C186.25,354.815 214.815,326.25 250,326.25ZM246.743,346.666C246.737,346.67 246.731,346.673 246.724,346.677L233.724,354.677C230.787,356.485 229.869,360.338 231.677,363.276C233.485,366.213 237.338,367.131 240.276,365.323L243.75,363.185L243.75,416.75L234.5,416.75C231.051,416.75 228.25,419.551 228.25,423C228.25,426.449 231.051,429.25 234.5,429.25L265.5,429.25C268.949,429.25 271.75,426.449 271.75,423C271.75,419.551 268.949,416.75 265.5,416.75L256.25,416.75L256.25,352C256.25,348.551 253.449,345.75 250,345.75C248.807,345.75 247.691,346.085 246.743,346.666ZM271.25,292.011L271.25,278.25L228.75,278.25L228.75,292.011C235.596,290.53 242.708,289.75 250,289.75C257.292,289.75 264.404,290.53 271.25,292.011ZM133.124,22.25L240.416,265.75L191.015,265.75C191.015,265.75 100.154,66.943 79.728,22.25L133.124,22.25ZM146.784,22.25L191.985,22.25L303.272,265.75L254.076,265.75L146.784,22.25ZM366.876,22.25L287.775,201.77L313,256.964L420.272,22.25L366.876,22.25ZM308.015,22.25L256.872,134.154L280.82,186.553L353.216,22.25L308.015,22.25Z"/>
    </g>
</svg>
