<?xml version="1.0" encoding="UTF-8" standalone="no"?>
<!DOCTYPE svg PUBLIC "-//W3C//DTD SVG 1.1//EN" "http://www.w3.org/Graphics/SVG/1.1/DTD/svg11.dtd">
<svg width="100%" height="100%" viewBox="0 0 500 500" version="1.1" xmlns="http://www.w3.org/2000/svg" xmlns:xlink="http://www.w3.org/1999/xlink" xml:space="preserve" xmlns:serif="http://www.serif.com/" style="fill-rule:evenodd;clip-rule:evenodd;stroke-linejoin:round;stroke-miterlimit:2;">
    <g id="Second_Medal">
        <path d="M250,119.118L201.684,13.402C200.668,11.177 198.446,9.75 196,9.75L70,9.75C67.873,9.75 65.892,10.832 64.742,12.622C63.592,14.411 63.431,16.663 64.316,18.598L181.316,274.598C182.332,276.823 184.554,278.25 187,278.25L216.25,278.25L216.25,295.582C177.502,309.453 149.75,346.511 149.75,390C149.75,445.329 194.671,490.25 250,490.25C305.329,490.25 350.25,445.329 350.25,390C350.25,346.511 322.498,309.453 283.75,295.582L283.75,278.25L312.896,278.25C315.303,278.288 317.621,276.926 318.684,274.598L435.684,18.598C436.569,16.663 436.408,14.411 435.258,12.622C434.108,10.832 432.127,9.75 430,9.75L304,9.75C301.554,9.75 299.332,11.177 298.316,13.402L250,119.118ZM250,302.25C298.431,302.25 337.75,341.569 337.75,390C337.75,438.431 298.431,477.75 250,477.75C201.569,477.75 162.25,438.431 162.25,390C162.25,341.569 201.569,302.25 250,302.25ZM250,313.75C207.916,313.75 173.75,347.916 173.75,390C173.75,432.084 207.916,466.25 250,466.25C292.084,466.25 326.25,432.084 326.25,390C326.25,347.916 292.084,313.75 250,313.75ZM250,326.25C285.185,326.25 313.75,354.815 313.75,390C313.75,425.185 285.185,453.75 250,453.75C214.815,453.75 186.25,425.185 186.25,390C186.25,354.815 214.815,326.25 250,326.25ZM231,361.25L254,361.25C258.833,361.25 262.75,365.167 262.75,370C262.75,370 262.75,373.082 262.75,373.082C262.75,376.423 260.492,379.342 257.258,380.181C250.625,381.902 242.148,384.101 236.302,385.618C229.5,387.383 224.75,393.522 224.75,400.55C224.75,409.853 224.75,425 224.75,425C224.75,428.452 227.548,431.25 231,431.25L269,431.25C272.449,431.25 275.25,428.449 275.25,425C275.25,421.551 272.449,418.75 269,418.75L237.25,418.75C237.25,418.75 237.25,400.55 237.25,400.55C237.25,399.217 238.151,398.052 239.441,397.718C239.441,397.718 260.397,392.281 260.397,392.281C269.143,390.011 275.25,382.118 275.25,373.082C275.25,372.075 275.25,371.04 275.25,370C275.25,358.264 265.736,348.75 254,348.75L231,348.75C227.551,348.75 224.75,351.551 224.75,355C224.75,358.449 227.551,361.25 231,361.25ZM271.25,292.011L271.25,278.25L228.75,278.25L228.75,292.011C235.596,290.53 242.708,289.75 250,289.75C257.292,289.75 264.404,290.53 271.25,292.011ZM133.124,22.25L240.416,265.75L191.015,265.75C191.015,265.75 100.154,66.943 79.728,22.25L133.124,22.25ZM146.784,22.25L191.985,22.25L303.272,265.75L254.076,265.75L146.784,22.25ZM366.876,22.25L287.775,201.77L313,256.964L420.272,22.25L366.876,22.25ZM308.015,22.25L256.872,134.154L280.82,186.553L353.216,22.25L308.015,22.25Z"/>
    </g>
</svg>
